{"title":"DJ Antoine Ft. The Beat Shakers - Ma Cherie [Music Video] 1080p ","uid":11141673,"size":62321399,"categoryP":"video","categoryS":"music_videos","magnet":"?xt=urn:btih:ad2b5dbbb058d4691dfc099d2185df69894c3fb7&amp;dn=DJ+Antoine+Ft.+The+Beat+Shakers+-+Ma+Cherie+%5BMusic+Video%5D+1080p+&amp;tr=udp%3A%2F%2Ftracker.openbittorrent.com%3A80&amp;tr=udp%3A%2F%2Fopen.demonii.com%3A1337&amp;tr=udp%3A%2F%2Ftracker.coppersurfer.tk%3A6969&amp;tr=udp%3A%2F%2Fexodus.desync.com%3A6969","seeders":2,"leechers":0,"uploader":"Sbyky","files":1,"time":1412178605,"description":"General\nComplete name                            : DJ Antoine Ft. The Beat Shakers - Ma Cherie [Music Video] 1080p [Sbyky].MP4\nFormat                                   : MPEG-4\nFormat profile                           : Base Media\nCodec ID                                 : isom\nFile size                                : 59.4 MiB\nDuration                                 : 3mn 16s\nOverall bit rate mode                    : Variable\nOverall bit rate                         : 2 532 Kbps\nEncoded date                             : UTC 2014-03-07 17:50:32\nTagged date                              : UTC 2014-03-07 17:50:32\n\nVideo\nID                                       : 1\nFormat                                   : AVC\nFormat/Info                              : Advanced Video Codec\nFormat profile                           : &lt;a class=&quot;__cf_email__&quot; href=&quot;/cdn-cgi/l/email-protection&quot; data-cfemail=&quot;0d45646a654d4139233d&quot;&gt;[email&amp;#160;protected]&lt;/a&gt;&lt;script cf-hash='f9e31' type=&quot;text/javascript&quot;&gt;\n/* &lt;![CDATA[ */!function(){try{var t=&quot;currentScript&quot;in document?document.currentScript:function(){for(var t=document.getElementsByTagName(&quot;script&quot;),e=t.length;e--;)if(t[e].getAttribute(&quot;cf-hash&quot;))return t[e]}();if(t&amp;&amp;t.previousSibling){var e,r,n,i,c=t.previousSibling,a=c.getAttribute(&quot;data-cfemail&quot;);if(a){for(e=&quot;&quot;,r=parseInt(a.substr(0,2),16),n=2;a.length-n;n+=2)i=parseInt(a.substr(n,2),16)^r,e+=String.fromCharCode(i);e=document.createTextNode(e),c.parentNode.replaceChild(e,c)}}}catch(u){}}();/* ]]&gt; */&lt;/script&gt;\nFormat settings, CABAC                   : Yes\nFormat settings, ReFrames                : 3 frames\nCodec ID                                 : avc1\nCodec ID/Info                            : Advanced Video Coding\nDuration                                 : 3mn 16s\nDuration_LastFrame                       : -39ms\nBit rate                                 : 2 406 Kbps\nWidth                                    : 1 920 pixels\nHeight                                   : 1 080 pixels\nDisplay aspect ratio                     : 16:9\nFrame rate mode                          : Constant\nFrame rate                               : 25.000 fps\nColor space                              : YUV\nChroma subsampling                       : 4:2:0\nBit depth                                : 8 bits\nScan type                                : Progressive\nBits/(Pixel*Frame)                       : 0.046\nStream size                              : 56.4 MiB (95%)\nEncoded date                             : UTC 2014-03-07 17:50:32\nTagged date                              : UTC 2014-03-07 17:50:32\n\nAudio\nID                                       : 2\nFormat                                   : AAC\nFormat/Info                              : Advanced Audio Codec\nFormat profile                           : LC\nCodec ID                                 : 40\nDuration                                 : 3mn 16s\nBit rate mode                            : Variable\nBit rate                                 : 126 Kbps\nChannel(s)                               : 2 channels\nChannel positions                        : Front: L R\nSampling rate                            : 44.1 KHz\nCompression mode                         : Lossy\nStream size                              : 2.95 MiB (5%)\nEncoded date                             : UTC 2014-03-07 17:50:11\nTagged date                              : UTC 2014-03-07 17:50:11\n\nShared By Sbyky\n","torrent":{"xt":"urn:btih:ad2b5dbbb058d4691dfc099d2185df69894c3fb7","amp;dn":"DJ+Antoine+Ft.+The+Beat+Shakers+-+Ma+Cherie+%5BMusic+Video%5D+1080p+","amp;tr":["udp%3A%2F%2Ftracker.openbittorrent.com%3A80","udp%3A%2F%2Fopen.demonii.com%3A1337","udp%3A%2F%2Ftracker.coppersurfer.tk%3A6969","udp%3A%2F%2Fexodus.desync.com%3A6969"],"infoHash":"ad2b5dbbb058d4691dfc099d2185df69894c3fb7","infoHashBuffer":{"type":"Buffer","data":[173,43,93,187,176,88,212,105,29,252,9,157,33,133,223,105,137,76,63,183]},"announce":[],"urlList":[]}}